@startuml
skinparam dpi 150
skinparam shadowing false

entity "ПОДРАЗДЕЛЕНИЕ" as dept {
}

entity "ИНЦИДЕНТ" as inc {
}

entity "ОТКАЗ_ОБОРУДОВАНИЯ" as fail {
}

entity "НАРУШЕНИЕ_ТБ" as viol {
}

entity "МЕДОСМОТР" as med {
}

entity "ОЦЕНКА_РИСКА" as risk {
}

dept ||--o{ inc : "имеет"
dept ||--o{ fail : "эксплуатирует"
dept ||--o{ viol : "допускает"
dept ||--o{ med : "организует"
@enduml
